# xmcd
#
# Track frame offsets: 
#        150
#        27405
#        45995
#        66612
#        77632
#        99090
#        109680
#        125565
#        145215
#        157925
#        175260
#        199050
#        215662
#        231150
#        232647
#        250615
#        275252
#        295627
#
# Disc length: 4338 seconds
#
# Revision: 0
# Processed by: cddbd v1.4PL0 Copyright (c) Steve Scherf et al.
# Submitted via: ExactAudioCopy v0.90b2
#
DISCID=ef10f012
DTITLE=John Mayall - Drivin' On Disc 1
DYEAR=1900
DGENRE=Blues
TTITLE0=Sitting On The Outside
TTITLE1=Can't Get Home
TTITLE2=Match The Wind
TTITLE3=Drivin' On
TTITLE4=My Train Time
TTITLE5=Step In The Sun
TTITLE6=It Ain't Easy
TTITLE7=Hail To The Man Who Lives Alone
TTITLE8=Lil' Boogie In The Afternoon
TTITLE9=Old Time Blues
TTITLE10=Seven Days Too Long
TTITLE11=Lady
TTITLE12=You Can't Put Me Down
TTITLE13=Intro
TTITLE14=Changes In The Wind
TTITLE15=Play The Harp
TTITLE16=He's A Traveling Man
TTITLE17=Room To Move
EXTD=
EXTT0=
EXTT1=
EXTT2=
EXTT3=
EXTT4=
EXTT5=
EXTT6=
EXTT7=
EXTT8=
EXTT9=
EXTT10=
EXTT11=
EXTT12=
EXTT13=
EXTT14=
EXTT15=
EXTT16=
EXTT17=
PLAYORDER=
